# xmcd CD database file
#
# Track frame offsets:
#	150
#	7402
#	12900
#	21597
#	25885
#	34297
#	40737
#	50500
#	62437
#	68517
#	73762
#	75575
#	81062
#	104835
#	107767
#	111437
#	116647
#	117925
#	124055
#	129800
#	142627
#	145877
#	152957
#	157117
#	161437
#	183412
#	189997
#	192832
#	199687
#	209087
#
# Disc length: 3215 seconds
#
# Revision: 3
# Processed by: cddbd v1.5.1PL0 Copyright (c) Steve Scherf et al.
# Submitted via: CDex 1.51
#
DISCID=ac0c8d1e
DTITLE=直枝政広 - man-hole ORIGINAL MOTION PICTURE SOUNDTRACK
DYEAR=2001
DGENRE=Soundtrack
TTITLE0=man-holeのテーマ
TTITLE1=純のキックボード
TTITLE2=Ding-Dong
TTITLE3=追跡 #3
TTITLE4=A Beautiful Day
TTITLE5=The Road (Version 2)
TTITLE6=高台レストラン
TTITLE7=あなただけは
TTITLE8=希のテーマ (Version 3)
TTITLE9=テレビ塔
TTITLE10=Depression
TTITLE11=緊迫
TTITLE12=愛の言葉
TTITLE13=回想
TTITLE14=追跡 #2
TTITLE15=サイゴン・カフェ
TTITLE16=歩道橋
TTITLE17=man-hole:観覧車のテーマ
TTITLE18=Lonesome Piano
TTITLE19=World Music
TTITLE20=母
TTITLE21=追跡 #1
TTITLE22=魅惑のテナー
TTITLE23=村田のテーマ
TTITLE24=野いちご
TTITLE25=希のテーマ (Version 1)
TTITLE26=The Road (Version 1)
TTITLE27=TAXI
TTITLE28=man-hole:地下水道のテーマ
TTITLE29=Garden City Lihe
EXTD=YEAR: 2001
EXTT0=
EXTT1=
EXTT2=
EXTT3=
EXTT4=
EXTT5=
EXTT6=
EXTT7=
EXTT8=
EXTT9=
EXTT10=
EXTT11=
EXTT12=
EXTT13=
EXTT14=
EXTT15=
EXTT16=
EXTT17=
EXTT18=
EXTT19=
EXTT20=
EXTT21=
EXTT22=
EXTT23=
EXTT24=
EXTT25=
EXTT26=
EXTT27=
EXTT28=
EXTT29=
PLAYORDER=
